<mxfile host="app.diagrams.net" modified="2021-10-21T09:17:26.535Z" agent="5.0 (Windows)" etag="x3gQ2dJ3GGNBA3QPVQiu" version="15.5.7" type="github" pages="2">
  <diagram id="uFmznslyKRhkzH60twWr" name="Page-1">
    <mxGraphModel dx="1038" dy="556" grid="1" gridSize="10" guides="1" tooltips="1" connect="1" arrows="1" fold="1" page="1" pageScale="1" pageWidth="827" pageHeight="1169" math="0" shadow="0">
      <root>
        <object label="" id="0">
          <mxCell />
        </object>
        <mxCell id="1" parent="0" />
        <mxCell id="fXT7MKvgeNNHt2NKxTS8-7" value="" style="edgeStyle=none;rounded=0;orthogonalLoop=1;jettySize=auto;html=1;fontSize=12;endArrow=none;endFill=0;" parent="1" source="XIdD8TfMGqSpguL7e6GZ-1" target="XIdD8TfMGqSpguL7e6GZ-25" edge="1">
          <mxGeometry relative="1" as="geometry" />
        </mxCell>
        <mxCell id="fXT7MKvgeNNHt2NKxTS8-8" style="edgeStyle=none;rounded=0;orthogonalLoop=1;jettySize=auto;html=1;fontSize=12;endArrow=none;endFill=0;" parent="1" source="XIdD8TfMGqSpguL7e6GZ-1" target="XIdD8TfMGqSpguL7e6GZ-11" edge="1">
          <mxGeometry relative="1" as="geometry">
            <mxPoint x="363.489865567165" y="470.49691757632854" as="targetPoint" />
          </mxGeometry>
        </mxCell>
        <mxCell id="fXT7MKvgeNNHt2NKxTS8-9" style="edgeStyle=none;rounded=0;orthogonalLoop=1;jettySize=auto;html=1;fontSize=12;endArrow=none;endFill=0;" parent="1" source="XIdD8TfMGqSpguL7e6GZ-1" target="XIdD8TfMGqSpguL7e6GZ-24" edge="1">
          <mxGeometry relative="1" as="geometry" />
        </mxCell>
        <mxCell id="fXT7MKvgeNNHt2NKxTS8-10" style="edgeStyle=none;rounded=0;orthogonalLoop=1;jettySize=auto;html=1;fontSize=12;endArrow=none;endFill=0;" parent="1" source="XIdD8TfMGqSpguL7e6GZ-1" target="XIdD8TfMGqSpguL7e6GZ-22" edge="1">
          <mxGeometry relative="1" as="geometry" />
        </mxCell>
        <mxCell id="XIdD8TfMGqSpguL7e6GZ-1" value="Агент по&lt;br&gt;недвижимости" style="shape=umlActor;verticalLabelPosition=bottom;verticalAlign=top;html=1;outlineConnect=0;" parent="1" vertex="1">
          <mxGeometry x="395" y="570" width="30" height="60" as="geometry" />
        </mxCell>
        <mxCell id="fXT7MKvgeNNHt2NKxTS8-3" style="edgeStyle=none;rounded=0;orthogonalLoop=1;jettySize=auto;html=1;fontSize=12;endArrow=none;endFill=0;" parent="1" source="XIdD8TfMGqSpguL7e6GZ-3" target="XIdD8TfMGqSpguL7e6GZ-9" edge="1">
          <mxGeometry relative="1" as="geometry" />
        </mxCell>
        <mxCell id="fXT7MKvgeNNHt2NKxTS8-4" style="edgeStyle=none;rounded=0;orthogonalLoop=1;jettySize=auto;html=1;fontSize=12;endArrow=none;endFill=0;" parent="1" source="XIdD8TfMGqSpguL7e6GZ-3" target="XIdD8TfMGqSpguL7e6GZ-10" edge="1">
          <mxGeometry relative="1" as="geometry" />
        </mxCell>
        <mxCell id="fXT7MKvgeNNHt2NKxTS8-5" style="edgeStyle=none;rounded=0;orthogonalLoop=1;jettySize=auto;html=1;fontSize=12;endArrow=none;endFill=0;" parent="1" source="XIdD8TfMGqSpguL7e6GZ-3" target="XIdD8TfMGqSpguL7e6GZ-11" edge="1">
          <mxGeometry relative="1" as="geometry" />
        </mxCell>
        <mxCell id="fXT7MKvgeNNHt2NKxTS8-6" style="edgeStyle=none;rounded=0;orthogonalLoop=1;jettySize=auto;html=1;fontSize=12;endArrow=none;endFill=0;" parent="1" source="XIdD8TfMGqSpguL7e6GZ-3" target="XIdD8TfMGqSpguL7e6GZ-12" edge="1">
          <mxGeometry relative="1" as="geometry" />
        </mxCell>
        <mxCell id="XIdD8TfMGqSpguL7e6GZ-3" value="Покупатель" style="shape=umlActor;verticalLabelPosition=bottom;verticalAlign=top;html=1;outlineConnect=0;" parent="1" vertex="1">
          <mxGeometry x="80" y="259" width="30" height="60" as="geometry" />
        </mxCell>
        <mxCell id="XIdD8TfMGqSpguL7e6GZ-6" value="Продавец&lt;br&gt;" style="shape=umlActor;verticalLabelPosition=bottom;verticalAlign=top;html=1;outlineConnect=0;" parent="1" vertex="1">
          <mxGeometry x="670" y="249" width="30" height="60" as="geometry" />
        </mxCell>
        <mxCell id="XIdD8TfMGqSpguL7e6GZ-9" value="Выбор дома" style="ellipse;whiteSpace=wrap;html=1;" parent="1" vertex="1">
          <mxGeometry x="210" y="340" width="100" height="60" as="geometry" />
        </mxCell>
        <mxCell id="XIdD8TfMGqSpguL7e6GZ-10" value="Просмотр выбранной&lt;br&gt;недвижимости" style="ellipse;whiteSpace=wrap;html=1;" parent="1" vertex="1">
          <mxGeometry x="200" y="259" width="140" height="60" as="geometry" />
        </mxCell>
        <mxCell id="XIdD8TfMGqSpguL7e6GZ-11" value="Заключение договора" style="ellipse;whiteSpace=wrap;html=1;" parent="1" vertex="1">
          <mxGeometry x="360" y="330" width="100" height="60" as="geometry" />
        </mxCell>
        <mxCell id="XIdD8TfMGqSpguL7e6GZ-12" value="Оплата" style="ellipse;whiteSpace=wrap;html=1;" parent="1" vertex="1">
          <mxGeometry x="160" y="400" width="100" height="60" as="geometry" />
        </mxCell>
        <mxCell id="fXT7MKvgeNNHt2NKxTS8-2" style="edgeStyle=none;rounded=0;orthogonalLoop=1;jettySize=auto;html=1;fontSize=12;endArrow=none;endFill=0;" parent="1" source="XIdD8TfMGqSpguL7e6GZ-13" target="XIdD8TfMGqSpguL7e6GZ-3" edge="1">
          <mxGeometry relative="1" as="geometry" />
        </mxCell>
        <mxCell id="XIdD8TfMGqSpguL7e6GZ-13" value="&lt;div&gt;Просмотр продающихся объектов недвижимости&lt;/div&gt;" style="ellipse;whiteSpace=wrap;html=1;" parent="1" vertex="1">
          <mxGeometry x="170" y="190" width="160" height="60" as="geometry" />
        </mxCell>
        <mxCell id="fXT7MKvgeNNHt2NKxTS8-13" style="edgeStyle=none;rounded=0;orthogonalLoop=1;jettySize=auto;html=1;fontSize=12;endArrow=none;endFill=0;" parent="1" source="XIdD8TfMGqSpguL7e6GZ-11" target="XIdD8TfMGqSpguL7e6GZ-6" edge="1">
          <mxGeometry relative="1" as="geometry">
            <mxPoint x="623.6351579147502" y="351.4256490994584" as="sourcePoint" />
          </mxGeometry>
        </mxCell>
        <mxCell id="fXT7MKvgeNNHt2NKxTS8-12" style="edgeStyle=none;rounded=0;orthogonalLoop=1;jettySize=auto;html=1;fontSize=12;endArrow=none;endFill=0;" parent="1" source="XIdD8TfMGqSpguL7e6GZ-18" target="XIdD8TfMGqSpguL7e6GZ-6" edge="1">
          <mxGeometry relative="1" as="geometry" />
        </mxCell>
        <mxCell id="XIdD8TfMGqSpguL7e6GZ-18" value="Предоставление возможности просмотра надвижимости" style="ellipse;whiteSpace=wrap;html=1;" parent="1" vertex="1">
          <mxGeometry x="440" y="249" width="160" height="60" as="geometry" />
        </mxCell>
        <mxCell id="fXT7MKvgeNNHt2NKxTS8-11" style="edgeStyle=none;rounded=0;orthogonalLoop=1;jettySize=auto;html=1;fontSize=12;endArrow=none;endFill=0;" parent="1" source="XIdD8TfMGqSpguL7e6GZ-19" target="XIdD8TfMGqSpguL7e6GZ-6" edge="1">
          <mxGeometry relative="1" as="geometry" />
        </mxCell>
        <mxCell id="XIdD8TfMGqSpguL7e6GZ-19" value="&lt;div&gt;Размещение недвижимости&lt;/div&gt;&lt;div&gt;для продажи&lt;br&gt;&lt;/div&gt;" style="ellipse;whiteSpace=wrap;html=1;" parent="1" vertex="1">
          <mxGeometry x="520" y="180" width="120" height="60" as="geometry" />
        </mxCell>
        <mxCell id="XIdD8TfMGqSpguL7e6GZ-22" value="Предоставление списка продающейся недвижимости" style="ellipse;whiteSpace=wrap;html=1;" parent="1" vertex="1">
          <mxGeometry x="180" y="510" width="200" height="60" as="geometry" />
        </mxCell>
        <mxCell id="XIdD8TfMGqSpguL7e6GZ-24" value="Получение разрешения на просмотр дома" style="ellipse;whiteSpace=wrap;html=1;" parent="1" vertex="1">
          <mxGeometry x="420" y="460" width="120" height="60" as="geometry" />
        </mxCell>
        <mxCell id="XIdD8TfMGqSpguL7e6GZ-25" value="Демонстрация недвижимости" style="ellipse;whiteSpace=wrap;html=1;" parent="1" vertex="1">
          <mxGeometry x="480" y="540" width="150" height="60" as="geometry" />
        </mxCell>
      </root>
    </mxGraphModel>
  </diagram>
  <diagram id="kvCLID6oOlvrnMDfkF9s" name="Page-2">
    <mxGraphModel dx="1730" dy="825" grid="1" gridSize="10" guides="1" tooltips="1" connect="1" arrows="1" fold="1" page="1" pageScale="1" pageWidth="1169" pageHeight="827" math="0" shadow="0">
      <root>
        <mxCell id="32iFl3Y6ZmpXQH2nXKaB-0" />
        <mxCell id="32iFl3Y6ZmpXQH2nXKaB-1" parent="32iFl3Y6ZmpXQH2nXKaB-0" />
        <mxCell id="q4tkmn7tY3nY-uOxMjD_-1" style="rounded=0;orthogonalLoop=1;jettySize=auto;html=1;endArrow=none;endFill=0;fillColor=#ffe6cc;strokeColor=#d79b00;" edge="1" parent="32iFl3Y6ZmpXQH2nXKaB-1" source="ZBLFOBSwMn9rFbzp6lWI-0" target="q4tkmn7tY3nY-uOxMjD_-0">
          <mxGeometry relative="1" as="geometry" />
        </mxCell>
        <mxCell id="ZBLFOBSwMn9rFbzp6lWI-0" value="Покупатель" style="shape=umlActor;verticalLabelPosition=bottom;verticalAlign=top;html=1;outlineConnect=0;fillColor=#ffe6cc;strokeColor=#d79b00;" vertex="1" parent="32iFl3Y6ZmpXQH2nXKaB-1">
          <mxGeometry x="105" y="50" width="30" height="60" as="geometry" />
        </mxCell>
        <mxCell id="q4tkmn7tY3nY-uOxMjD_-3" style="edgeStyle=none;rounded=0;orthogonalLoop=1;jettySize=auto;html=1;endArrow=classic;endFill=1;" edge="1" parent="32iFl3Y6ZmpXQH2nXKaB-1" source="q4tkmn7tY3nY-uOxMjD_-0" target="q4tkmn7tY3nY-uOxMjD_-2">
          <mxGeometry relative="1" as="geometry" />
        </mxCell>
        <mxCell id="q4tkmn7tY3nY-uOxMjD_-0" value="&lt;div&gt;Получить список&lt;/div&gt;&lt;div&gt;объектов&lt;/div&gt;" style="html=1;dashed=0;whitespace=wrap;fillColor=#ffe6cc;strokeColor=#d79b00;" vertex="1" parent="32iFl3Y6ZmpXQH2nXKaB-1">
          <mxGeometry x="70" y="210" width="100" height="50" as="geometry" />
        </mxCell>
        <mxCell id="X-y3XuhNHoDfyLgZcJ0J-1" style="edgeStyle=none;rounded=0;orthogonalLoop=1;jettySize=auto;html=1;endFill=1;" edge="1" parent="32iFl3Y6ZmpXQH2nXKaB-1" source="q4tkmn7tY3nY-uOxMjD_-2" target="X-y3XuhNHoDfyLgZcJ0J-0">
          <mxGeometry relative="1" as="geometry" />
        </mxCell>
        <mxCell id="q4tkmn7tY3nY-uOxMjD_-2" value="Выполнить &lt;br&gt;фильтрацию &lt;br&gt;списка" style="html=1;dashed=0;whitespace=wrap;fillColor=#ffe6cc;strokeColor=#d79b00;" vertex="1" parent="32iFl3Y6ZmpXQH2nXKaB-1">
          <mxGeometry x="220" y="210" width="100" height="50" as="geometry" />
        </mxCell>
        <mxCell id="X-y3XuhNHoDfyLgZcJ0J-3" style="edgeStyle=orthogonalEdgeStyle;rounded=0;orthogonalLoop=1;jettySize=auto;html=1;endFill=1;" edge="1" parent="32iFl3Y6ZmpXQH2nXKaB-1" source="X-y3XuhNHoDfyLgZcJ0J-0" target="X-y3XuhNHoDfyLgZcJ0J-2">
          <mxGeometry relative="1" as="geometry" />
        </mxCell>
        <mxCell id="X-y3XuhNHoDfyLgZcJ0J-0" value="Открыть &lt;br&gt;карточку &lt;br&gt;объекта" style="html=1;dashed=0;whitespace=wrap;fillColor=#ffe6cc;strokeColor=#d79b00;" vertex="1" parent="32iFl3Y6ZmpXQH2nXKaB-1">
          <mxGeometry x="385" y="210" width="100" height="50" as="geometry" />
        </mxCell>
        <mxCell id="X-y3XuhNHoDfyLgZcJ0J-4" style="edgeStyle=orthogonalEdgeStyle;rounded=0;orthogonalLoop=1;jettySize=auto;html=1;endFill=1;" edge="1" parent="32iFl3Y6ZmpXQH2nXKaB-1" source="X-y3XuhNHoDfyLgZcJ0J-2" target="q4tkmn7tY3nY-uOxMjD_-2">
          <mxGeometry relative="1" as="geometry">
            <Array as="points">
              <mxPoint x="590" y="160" />
              <mxPoint x="270" y="160" />
            </Array>
          </mxGeometry>
        </mxCell>
        <mxCell id="i1CzGohAVQwN1NqUQj0E-0" style="edgeStyle=orthogonalEdgeStyle;rounded=0;orthogonalLoop=1;jettySize=auto;html=1;endFill=1;" edge="1" parent="32iFl3Y6ZmpXQH2nXKaB-1" source="X-y3XuhNHoDfyLgZcJ0J-2" target="i1CzGohAVQwN1NqUQj0E-1">
          <mxGeometry relative="1" as="geometry">
            <mxPoint x="460" y="340" as="targetPoint" />
            <Array as="points">
              <mxPoint x="710" y="235" />
              <mxPoint x="710" y="235" />
            </Array>
          </mxGeometry>
        </mxCell>
        <mxCell id="X-y3XuhNHoDfyLgZcJ0J-2" value="" style="shape=rhombus;html=1;dashed=0;whitespace=wrap;perimeter=rhombusPerimeter;fillColor=#ffe6cc;strokeColor=#d79b00;" vertex="1" parent="32iFl3Y6ZmpXQH2nXKaB-1">
          <mxGeometry x="560" y="210" width="60" height="50" as="geometry" />
        </mxCell>
        <mxCell id="0fEnES1rj23qgPu1JbcX-25" style="edgeStyle=none;rounded=0;orthogonalLoop=1;jettySize=auto;html=1;endFill=1;" edge="1" parent="32iFl3Y6ZmpXQH2nXKaB-1" source="i1CzGohAVQwN1NqUQj0E-1" target="0fEnES1rj23qgPu1JbcX-20">
          <mxGeometry relative="1" as="geometry" />
        </mxCell>
        <mxCell id="i1CzGohAVQwN1NqUQj0E-1" value="Записаться на &lt;br&gt;просмотр дома" style="html=1;dashed=0;whitespace=wrap;fillColor=#ffe6cc;strokeColor=#d79b00;" vertex="1" parent="32iFl3Y6ZmpXQH2nXKaB-1">
          <mxGeometry x="680" y="210" width="145" height="50" as="geometry" />
        </mxCell>
        <mxCell id="0fEnES1rj23qgPu1JbcX-2" style="rounded=0;orthogonalLoop=1;jettySize=auto;html=1;endFill=0;endArrow=none;fillColor=#d5e8d4;strokeColor=#82b366;" edge="1" parent="32iFl3Y6ZmpXQH2nXKaB-1" source="i1CzGohAVQwN1NqUQj0E-2" target="0fEnES1rj23qgPu1JbcX-0">
          <mxGeometry relative="1" as="geometry" />
        </mxCell>
        <mxCell id="i1CzGohAVQwN1NqUQj0E-2" value="Агент по&lt;br&gt;недвижимости" style="shape=umlActor;verticalLabelPosition=bottom;verticalAlign=top;html=1;outlineConnect=0;fillColor=#d5e8d4;strokeColor=#82b366;" vertex="1" parent="32iFl3Y6ZmpXQH2nXKaB-1">
          <mxGeometry x="95" y="420" width="30" height="60" as="geometry" />
        </mxCell>
        <mxCell id="0fEnES1rj23qgPu1JbcX-4" style="edgeStyle=none;rounded=0;orthogonalLoop=1;jettySize=auto;html=1;endFill=1;" edge="1" parent="32iFl3Y6ZmpXQH2nXKaB-1" source="0fEnES1rj23qgPu1JbcX-0" target="0fEnES1rj23qgPu1JbcX-3">
          <mxGeometry relative="1" as="geometry" />
        </mxCell>
        <mxCell id="0fEnES1rj23qgPu1JbcX-0" value="Запросить разрешение &lt;br&gt;на просмотр дома" style="html=1;dashed=0;whitespace=wrap;fillColor=#d5e8d4;strokeColor=#82b366;" vertex="1" parent="32iFl3Y6ZmpXQH2nXKaB-1">
          <mxGeometry x="30" y="580" width="160" height="50" as="geometry" />
        </mxCell>
        <mxCell id="0fEnES1rj23qgPu1JbcX-46" style="edgeStyle=orthogonalEdgeStyle;rounded=0;orthogonalLoop=1;jettySize=auto;html=1;endFill=1;" edge="1" parent="32iFl3Y6ZmpXQH2nXKaB-1" source="0fEnES1rj23qgPu1JbcX-3" target="0fEnES1rj23qgPu1JbcX-44">
          <mxGeometry relative="1" as="geometry" />
        </mxCell>
        <mxCell id="0fEnES1rj23qgPu1JbcX-3" value="Отправить запрос &lt;br&gt;на просмотр &lt;br&gt;дома владельцу" style="html=1;dashed=0;whitespace=wrap;fillColor=#d5e8d4;strokeColor=#82b366;" vertex="1" parent="32iFl3Y6ZmpXQH2nXKaB-1">
          <mxGeometry x="260" y="580" width="160" height="50" as="geometry" />
        </mxCell>
        <mxCell id="0fEnES1rj23qgPu1JbcX-11" style="edgeStyle=none;rounded=0;orthogonalLoop=1;jettySize=auto;html=1;endFill=1;" edge="1" parent="32iFl3Y6ZmpXQH2nXKaB-1" source="0fEnES1rj23qgPu1JbcX-10" target="q4tkmn7tY3nY-uOxMjD_-0">
          <mxGeometry relative="1" as="geometry" />
        </mxCell>
        <mxCell id="0fEnES1rj23qgPu1JbcX-10" value="Объекты&lt;br&gt;недвижимости" style="html=1;dashed=0;whitespace=wrap;shape=partialRectangle;right=0;fillColor=#f5f5f5;strokeColor=#666666;fontColor=#333333;" vertex="1" parent="32iFl3Y6ZmpXQH2nXKaB-1">
          <mxGeometry x="70" y="350" width="100" height="30" as="geometry" />
        </mxCell>
        <mxCell id="0fEnES1rj23qgPu1JbcX-15" style="edgeStyle=none;rounded=0;orthogonalLoop=1;jettySize=auto;html=1;endFill=1;" edge="1" parent="32iFl3Y6ZmpXQH2nXKaB-1" source="0fEnES1rj23qgPu1JbcX-12" target="X-y3XuhNHoDfyLgZcJ0J-0">
          <mxGeometry relative="1" as="geometry" />
        </mxCell>
        <mxCell id="0fEnES1rj23qgPu1JbcX-12" value="Фотографии&lt;br&gt;объекта" style="html=1;dashed=0;whitespace=wrap;shape=partialRectangle;right=0;fillColor=#f5f5f5;strokeColor=#666666;fontColor=#333333;" vertex="1" parent="32iFl3Y6ZmpXQH2nXKaB-1">
          <mxGeometry x="300" y="350" width="100" height="30" as="geometry" />
        </mxCell>
        <mxCell id="0fEnES1rj23qgPu1JbcX-16" style="edgeStyle=none;rounded=0;orthogonalLoop=1;jettySize=auto;html=1;endFill=1;" edge="1" parent="32iFl3Y6ZmpXQH2nXKaB-1" source="0fEnES1rj23qgPu1JbcX-14" target="X-y3XuhNHoDfyLgZcJ0J-0">
          <mxGeometry relative="1" as="geometry" />
        </mxCell>
        <mxCell id="0fEnES1rj23qgPu1JbcX-14" value="Описание&lt;br&gt;объекта" style="html=1;dashed=0;whitespace=wrap;shape=partialRectangle;right=0;fillColor=#f5f5f5;strokeColor=#666666;fontColor=#333333;" vertex="1" parent="32iFl3Y6ZmpXQH2nXKaB-1">
          <mxGeometry x="460" y="350" width="100" height="30" as="geometry" />
        </mxCell>
        <mxCell id="0fEnES1rj23qgPu1JbcX-17" value="Журнал запросов&lt;br&gt;на просмотр" style="html=1;dashed=0;whitespace=wrap;shape=partialRectangle;right=0;fillColor=#f5f5f5;strokeColor=#666666;fontColor=#333333;" vertex="1" parent="32iFl3Y6ZmpXQH2nXKaB-1">
          <mxGeometry x="696.25" y="470" width="112.5" height="30" as="geometry" />
        </mxCell>
        <mxCell id="0fEnES1rj23qgPu1JbcX-26" style="edgeStyle=none;rounded=0;orthogonalLoop=1;jettySize=auto;html=1;endFill=1;" edge="1" parent="32iFl3Y6ZmpXQH2nXKaB-1" source="0fEnES1rj23qgPu1JbcX-20" target="0fEnES1rj23qgPu1JbcX-17">
          <mxGeometry relative="1" as="geometry" />
        </mxCell>
        <mxCell id="0fEnES1rj23qgPu1JbcX-20" value="Запрос" style="swimlane;fontStyle=0;childLayout=stackLayout;horizontal=1;startSize=26;horizontalStack=0;resizeParent=1;resizeParentMax=0;resizeLast=0;collapsible=1;marginBottom=0;align=center;fontSize=14;fillColor=#f5f5f5;strokeColor=#666666;fontColor=#333333;" vertex="1" parent="32iFl3Y6ZmpXQH2nXKaB-1">
          <mxGeometry x="672.5" y="297" width="160" height="146" as="geometry" />
        </mxCell>
        <mxCell id="0fEnES1rj23qgPu1JbcX-21" value="Дата" style="text;strokeColor=none;fillColor=none;spacingLeft=4;spacingRight=4;overflow=hidden;rotatable=0;points=[[0,0.5],[1,0.5]];portConstraint=eastwest;fontSize=12;" vertex="1" parent="0fEnES1rj23qgPu1JbcX-20">
          <mxGeometry y="26" width="160" height="30" as="geometry" />
        </mxCell>
        <mxCell id="0fEnES1rj23qgPu1JbcX-22" value="Ссылка на объект" style="text;strokeColor=none;fillColor=none;spacingLeft=4;spacingRight=4;overflow=hidden;rotatable=0;points=[[0,0.5],[1,0.5]];portConstraint=eastwest;fontSize=12;" vertex="1" parent="0fEnES1rj23qgPu1JbcX-20">
          <mxGeometry y="56" width="160" height="30" as="geometry" />
        </mxCell>
        <mxCell id="0fEnES1rj23qgPu1JbcX-23" value="Признак подтверждения" style="text;strokeColor=none;fillColor=none;spacingLeft=4;spacingRight=4;overflow=hidden;rotatable=0;points=[[0,0.5],[1,0.5]];portConstraint=eastwest;fontSize=12;" vertex="1" parent="0fEnES1rj23qgPu1JbcX-20">
          <mxGeometry y="86" width="160" height="30" as="geometry" />
        </mxCell>
        <mxCell id="0fEnES1rj23qgPu1JbcX-42" value="Статус" style="text;strokeColor=none;fillColor=none;spacingLeft=4;spacingRight=4;overflow=hidden;rotatable=0;points=[[0,0.5],[1,0.5]];portConstraint=eastwest;fontSize=12;" vertex="1" parent="0fEnES1rj23qgPu1JbcX-20">
          <mxGeometry y="116" width="160" height="30" as="geometry" />
        </mxCell>
        <mxCell id="0fEnES1rj23qgPu1JbcX-45" style="edgeStyle=orthogonalEdgeStyle;rounded=0;orthogonalLoop=1;jettySize=auto;html=1;endFill=1;" edge="1" parent="32iFl3Y6ZmpXQH2nXKaB-1" source="0fEnES1rj23qgPu1JbcX-43" target="0fEnES1rj23qgPu1JbcX-0">
          <mxGeometry relative="1" as="geometry">
            <mxPoint x="210" y="700" as="targetPoint" />
          </mxGeometry>
        </mxCell>
        <mxCell id="0fEnES1rj23qgPu1JbcX-43" value="Журнал запросов&lt;br&gt;на просмотр" style="html=1;dashed=0;whitespace=wrap;shape=partialRectangle;right=0;fillColor=#f5f5f5;strokeColor=#666666;fontColor=#333333;" vertex="1" parent="32iFl3Y6ZmpXQH2nXKaB-1">
          <mxGeometry x="52" y="720" width="113.5" height="30" as="geometry" />
        </mxCell>
        <mxCell id="0fEnES1rj23qgPu1JbcX-44" value="Журнал запросов&lt;br&gt;на просмотр" style="html=1;dashed=0;whitespace=wrap;shape=partialRectangle;right=0;fillColor=#f5f5f5;strokeColor=#666666;fontColor=#333333;" vertex="1" parent="32iFl3Y6ZmpXQH2nXKaB-1">
          <mxGeometry x="282" y="720" width="113.5" height="30" as="geometry" />
        </mxCell>
      </root>
    </mxGraphModel>
  </diagram>
</mxfile>
